/vscmnt/brussel_pixiu_data/_data_brussel/112/vsc11236/PredSimResults/SUBJ07mtu3D/worker5.mot
version=1
nRows=4
nColumns=50
inDegrees=yes
endheader
                time	         pelvis_tilt	         pelvis_list	     pelvis_rotation	           pelvis_tx	           pelvis_ty	           pelvis_tz	       hip_flexion_r	     hip_adduction_r	      hip_rotation_r	        knee_angle_r	       ankle_angle_r	         mtp_angle_r	       hip_flexion_l	     hip_adduction_l	      hip_rotation_l	        knee_angle_l	       ankle_angle_l	         mtp_angle_l	    lumbar_extension	      lumbar_bending	     lumbar_rotation	 ercspn_r/activation	 intobl_r/activation	 extobl_r/activation	    abd_r/activation	    add_r/activation	hamstrings_r/activation	bifemsh_r/activation	glut_max_r/activation	iliopsoas_r/activation	rect_fem_r/activation	  vasti_r/activation	gastroc_r/activation	 soleus_r/activation	tib_ant_r/activation	 ercspn_l/activation	 intobl_l/activation	 extobl_l/activation	    abd_l/activation	    add_l/activation	hamstrings_l/activation	bifemsh_l/activation	glut_max_l/activation	iliopsoas_l/activation	rect_fem_l/activation	  vasti_l/activation	gastroc_l/activation	 soleus_l/activation	tib_ant_l/activation	
          1.07171559	         -6.77401512	         -1.18367252	          8.09834817	          1.30749302	          0.84854715	         -0.01094591	         32.63360741	         -1.27093190	         -4.38780563	         -6.35197980	          6.57409860	          0.25298614	        -10.13288073	         -0.05301065	          6.48481783	         -9.04052107	         10.92298622	         23.34924849	         -8.45405705	         -0.99551212	         -1.04674727	          0.12433808	          0.17415315	          0.01000062	          0.03779798	          0.08275903	          0.11179193	          0.24829879	          0.01000031	          0.07492538	          0.01000064	          0.01000013	          0.01926246	          0.01000322	          0.39101566	          0.05367312	          0.01000011	          0.01000025	          0.04486833	          0.02529716	          0.01863679	          0.15838231	          0.03606736	          0.35289745	          0.01000238	          0.01000038	          0.17845437	          0.27032965	          0.01607500	
          1.08243274	         -6.78435382	         -1.04162639	          8.06682175	          1.32288805	          0.84661227	         -0.01103236	         32.60465442	         -1.10819737	         -3.84308622	         -7.83174984	          6.28827151	          0.25753988	        -10.59855852	          0.06079556	          6.10970157	        -10.15476691	         10.30714900	         24.94117540	         -8.24888070	         -0.67592217	         -1.21014154	          0.10549577	          0.15253971	          0.01000040	          0.03206973	          0.13277020	          0.09485008	          0.21066956	          0.09509303	          0.06357051	          0.01001260	          0.01000016	          0.01635804	          0.01389144	          0.38153439	          0.10792546	          0.01000015	          0.01000031	          0.03806856	          0.05294600	          0.01700005	          0.13437965	          0.03060139	          0.39940156	          0.01178829	          0.01397251	          0.15140970	          0.25433075	          0.01363884	
          1.09314990	         -6.78641129	         -0.91196662	          7.98040689	          1.33851422	          0.84479581	         -0.01109260	         32.44615087	         -0.98181304	         -3.22551725	         -9.44853004	          6.03818026	          0.23903415	        -10.92167591	          0.18451402	          5.68714766	        -11.57188459	          9.61050035	         26.52154039	         -8.02586886	         -0.32210140	         -1.36331816	          0.08951790	          0.16213275	          0.01000027	          0.07056970	          0.12139528	          0.08631842	          0.17874310	          0.12667905	          0.05393645	          0.01000039	          0.01000006	          0.01387959	          0.01178641	          0.42428916	          0.12072439	          0.01000009	          0.01000051	          0.03229929	          0.05594766	          0.01901533	          0.11401459	          0.02596378	          0.38988414	          0.01000271	          0.01277373	          0.12846364	          0.22356873	          0.01157190	
          1.10386705	         -6.78384690	         -0.79602169	          7.83369661	          1.35415718	          0.84327585	         -0.01106684	         32.19246782	         -0.84583076	         -2.66145115	        -10.86685497	          5.65636076	          0.22993556	        -11.00489062	          0.31974249	          5.21758857	        -13.42656901	          8.79901813	         28.06181311	         -7.81191199	          0.05839627	         -1.50421321	          0.10965878	          0.13756170	          0.01000025	          0.13017270	          0.13808159	          0.07574235	          0.15165491	          0.17186039	          0.04576243	          0.01000037	          0.01000006	          0.01177625	          0.01000027	          0.45065287	          0.14781460	          0.01000010	          0.01000032	          0.02740435	          0.05400199	          0.02038483	          0.09673584	          0.02202899	          0.39858358	          0.01000254	          0.01393686	          0.10899503	          0.18968703	          0.01000003	
